# xmcd
#
# Track frame offsets:
#	150
#	15048
#	30696
#	46344
#	62442
#	76365
#	90963
#	106386
#	123534
#	139707
#	154080
#	169878
#
# Disc length: 2468 seconds
#
# Revision: 0
# Processed by: cddbd v1.5.2PL0 Copyright (c) Steve Scherf et al.
# Submitted via: EasyCDDAExtractor 16.1.0.1
#
DISCID=8709a20c
DTITLE=Corey Colum
DYEAR=2012
DGENRE=Country
TTITLE0=West Australian Woman
TTITLE1=Humpty Doo Hotel
TTITLE2=One Of Us
TTITLE3=The Wrong Bloke
TTITLE4=Hot Out Here
TTITLE5=Fire In The Hole
TTITLE6=Time Stood Still
TTITLE7=Outback Justice
TTITLE8=Thinkin' About It
TTITLE9=The Bigger The Hammer
TTITLE10=The Ballad Of Brigalow
TTITLE11=Cuttin' Loose
EXTD=
EXTT0=
EXTT1=
EXTT2=
EXTT3=
EXTT4=
EXTT5=
EXTT6=
EXTT7=
EXTT8=
EXTT9=
EXTT10=
EXTT11=
PLAYORDER=
